<?xml version="1.0" encoding="UTF-8" standalone="no"?>
<!-- Created with Inkscape (http://www.inkscape.org/) -->

<svg
   width="292.66589mm"
   height="66.979538mm"
   viewBox="0 0 292.66589 66.979536"
   version="1.1"
   id="svg5"
   inkscape:version="1.2.2 (b0a8486541, 2022-12-01)"
   sodipodi:docname="QIQSS_logo_v3.svg"
   xmlns:inkscape="http://www.inkscape.org/namespaces/inkscape"
   xmlns:sodipodi="http://sodipodi.sourceforge.net/DTD/sodipodi-0.dtd"
   xmlns="http://www.w3.org/2000/svg"
   xmlns:svg="http://www.w3.org/2000/svg">
  <sodipodi:namedview
     id="namedview7"
     pagecolor="#ffffff"
     bordercolor="#000000"
     borderopacity="0.25"
     inkscape:showpageshadow="2"
     inkscape:pageopacity="0.0"
     inkscape:pagecheckerboard="0"
     inkscape:deskcolor="#d1d1d1"
     inkscape:document-units="mm"
     showgrid="false"
     showguides="false"
     inkscape:zoom="0.70710678"
     inkscape:cx="519.72349"
     inkscape:cy="142.12846"
     inkscape:window-width="1610"
     inkscape:window-height="968"
     inkscape:window-x="0"
     inkscape:window-y="0"
     inkscape:window-maximized="0"
     inkscape:current-layer="layer1">
    <inkscape:grid
       type="xygrid"
       id="grid2616"
       originx="-65.998926"
       originy="-65.746969" />
    <sodipodi:guide
       position="34.001074,132.72651"
       orientation="-1,0"
       id="guide2618"
       inkscape:locked="false"
       inkscape:label=""
       inkscape:color="rgb(0,134,229)" />
    <sodipodi:guide
       position="-23.155619,32.726508"
       orientation="0,1"
       id="guide3346"
       inkscape:locked="false"
       inkscape:label=""
       inkscape:color="rgb(0,134,229)" />
    <sodipodi:guide
       position="66.97884,23.007584"
       orientation="1,0"
       id="guide10905"
       inkscape:locked="false" />
    <sodipodi:guide
       position="49.593823,0.00081994088"
       orientation="0,-1"
       id="guide10907"
       inkscape:locked="false" />
  </sodipodi:namedview>
  <defs
     id="defs2" />
  <g
     inkscape:label="Layer 1"
     inkscape:groupmode="layer"
     id="layer1"
     transform="translate(-65.998925,-65.746972)">
    <path
       id="path5632"
       style="color:#000000;fill:#113ab1;fill-opacity:1;stroke-linecap:round;stroke-linejoin:round;-inkscape-stroke:none"
       d="m 131.80462,131.55423 c 0.11256,-0.11397 0.21804,-0.23472 0.31611,-0.36136 0.0141,-0.0169 0.0274,-0.0344 0.0414,-0.0513 0.0519,-0.0724 0.10138,-0.1465 0.14836,-0.22218 l 0.001,-0.001 c 0.0245,-0.0359 0.0488,-0.0717 0.0724,-0.10815 l 3.3e-4,-0.001 c 0.0103,-0.0146 0.0199,-0.0298 0.03,-0.0446 0.0154,-0.0253 0.0303,-0.0512 0.045,-0.0771 0.0747,-0.13198 0.14174,-0.26818 0.20097,-0.40779 0.009,-0.0214 0.017,-0.0431 0.0252,-0.0647 0.0113,-0.0324 0.0221,-0.0649 0.0325,-0.0976 l 0.003,-0.006 c 0.0176,-0.049 0.0343,-0.0984 0.0501,-0.14795 7.1e-4,-0.005 0.003,-0.01 0.004,-0.0151 0.073,-0.21916 0.12695,-0.44424 0.16114,-0.67272 0.003,-0.014 0.004,-0.0287 0.007,-0.0431 7.1e-4,-0.009 0.001,-0.0192 0.002,-0.0289 l 3.4e-4,-0.001 c 0.003,-0.0329 0.005,-0.0658 0.007,-0.0986 0.0122,-0.11278 0.0197,-0.22605 0.0223,-0.33947 0.001,-0.0127 0.002,-0.0255 0.003,-0.0383 v -26.7566 c -1.3e-4,-2.208973 -1.7908,-3.999643 -3.99975,-3.999773 -2.20866,3.4e-4 -3.99904,1.79072 -3.99938,3.999403 l -3.7e-4,17.09998 -31.185731,-31.185753 c -0.6408,-0.64073 -1.48015,-1.04487 -2.38063,-1.14628 -0.29748,-0.0335 -0.59778,-0.0335 -0.89525,-10e-6 h -7.3e-4 c -0.51732,0.065 -1.01694,0.23043 -1.47077,0.48709 -0.0706,0.0316 -0.14032,0.0652 -0.20902,0.10084 -0.25372,0.15939 -0.48866,0.34683 -0.7005,0.55871 -0.26172,0.27021 -0.48328,0.57662 -0.65918,0.90913 -0.25667,0.45382 -0.42214,0.95346 -0.4871,1.47077 v 7.3e-4 c -0.0335,0.29748 -0.0335,0.59777 0,0.89525 0.10142,0.90048 0.50556,1.73983 1.14629,2.38063 l 31.185741,31.185753 -17.09999,3.7e-4 c -2.20866,3.3e-4 -3.99905,1.79072 -3.99938,3.99939 1.3e-4,2.20895 1.7908,3.99962 3.99974,3.99975 h 26.74199 0.0146 c 0.12622,-0.002 0.25235,-0.0106 0.37783,-0.0249 0.0329,-0.002 0.0658,-0.004 0.0986,-0.007 0.01,0 0.0197,-0.001 0.0296,-0.002 0.0146,-0.002 0.0287,-0.004 0.0431,-0.007 0.22899,-0.0343 0.45456,-0.0885 0.67418,-0.16187 0.005,-7e-4 0.009,-0.002 0.0144,-0.003 0.0496,-0.0157 0.099,-0.0324 0.14795,-0.0501 l 0.004,-0.001 c 0.033,-0.0105 0.0659,-0.0215 0.0986,-0.0329 0.022,-0.008 0.0432,-0.0166 0.0647,-0.0252 0.13965,-0.0592 0.27578,-0.12631 0.40779,-0.20097 0.026,-0.0146 0.0516,-0.0297 0.0771,-0.045 0.0155,-0.01 0.0303,-0.0204 0.0457,-0.0303 l 3.6e-4,-3.6e-4 c 0.0363,-0.0236 0.0726,-0.0477 0.10815,-0.0724 l 3.6e-4,-3.7e-4 c 0.0758,-0.0471 0.15002,-0.0967 0.22255,-0.14872 0.0176,-0.0134 0.0344,-0.0274 0.0513,-0.0414 0.12683,-0.0981 0.24763,-0.20378 0.36172,-0.31646 z"
       sodipodi:nodetypes="sccccccccccccccccccccccccccsccccccccscccccccccccccccccccccccccss" />
    <path
       style="color:#000000;fill:#113ab1;fill-opacity:1;stroke-linecap:round;stroke-linejoin:round;-inkscape-stroke:none"
       d="M 97.037109,65.876953 C 80.626393,67.312705 67.564658,80.37444 66.128906,96.785156 c -1.43575,16.410714 9.158229,31.541054 25.070313,35.804684 a 3.999995,3.999995 0 0 0 4.90039,-2.82812 3.999995,3.999995 0 0 0 -2.828125,-4.90039 C 81.058138,121.58877 72.997597,110.07849 74.099609,97.482422 75.201623,84.88635 85.138303,74.94967 97.734375,73.847656 c 12.596075,-1.102012 24.106345,6.95853 27.378905,19.171875 a 3.999995,3.999995 0 0 0 4.90039,2.828125 3.999995,3.999995 0 0 0 2.82813,-4.90039 C 128.57817,75.035183 113.44782,64.441204 97.037109,65.876953 Z"
       id="path10899" />
    <text
       xml:space="preserve"
       style="font-weight:500;font-size:70px;font-family:'CMU Serif';-inkscape-font-specification:'CMU Serif Medium';fill:#000000;fill-opacity:1;stroke:none;stroke-width:7.99999;stroke-linecap:round;stroke-linejoin:round;stroke-dasharray:none;stroke-opacity:1"
       x="146.66997"
       y="122.78569"
       id="text10963"><tspan
         sodipodi:role="line"
         id="tspan10961"
         style="font-style:normal;font-variant:normal;font-weight:normal;font-stretch:normal;font-size:70px;font-family:Sono;-inkscape-font-specification:Sono;fill:#000000;fill-opacity:1;stroke:none;stroke-width:8"
         x="146.66997"
         y="122.78569">QIQSS</tspan></text>
  </g>
</svg>
