<?xml version="1.0" encoding="UTF-8" standalone="no"?>
<!-- Generator: Adobe Illustrator 26.3.1, SVG Export Plug-In . SVG Version: 6.00 Build 0)  -->

<svg
   version="1.1"
   id="Calque_1"
   x="0px"
   y="0px"
   viewBox="0 0 638.19 146.51"
   xml:space="preserve"
   sodipodi:docname="UdeS_logo_h_rgb.svg"
   width="638.19"
   height="146.50999"
   inkscape:version="1.4 (e7c3feb100, 2024-10-09)"
   xmlns:inkscape="http://www.inkscape.org/namespaces/inkscape"
   xmlns:sodipodi="http://sodipodi.sourceforge.net/DTD/sodipodi-0.dtd"
   xmlns="http://www.w3.org/2000/svg"
   xmlns:svg="http://www.w3.org/2000/svg"><defs
   id="defs28" /><sodipodi:namedview
   id="namedview28"
   pagecolor="#ffffff"
   bordercolor="#000000"
   borderopacity="0.25"
   inkscape:showpageshadow="2"
   inkscape:pageopacity="0.0"
   inkscape:pagecheckerboard="0"
   inkscape:deskcolor="#d1d1d1"
   showgrid="false"
   inkscape:zoom="0.47385621"
   inkscape:cx="659.48276"
   inkscape:cy="113.95862"
   inkscape:window-width="2560"
   inkscape:window-height="1371"
   inkscape:window-x="0"
   inkscape:window-y="0"
   inkscape:window-maximized="1"
   inkscape:current-layer="Calque_1" />
<style
   type="text/css"
   id="style1">
	.st0{fill:#00A759;}
	.st1{fill:#FFFFFF;}
	.st2{fill:none;}
</style>
<g
   id="g22"
   transform="translate(-78.389999,-219.21001)"
   style="display:inline">
	<path
   d="m 402.2,281.41 c -2.43,-2.8 -3.64,-7.15 -3.64,-13.05 v -19.67 l -3.72,-0.64 v -2.68 h 13.99 v 2.68 l -4.45,0.7 v 20.2 c 0,4.86 0.85,8.36 2.54,10.5 1.69,2.14 4.13,3.22 7.31,3.22 3.18,0 5.56,-1.14 7.15,-3.43 1.59,-2.29 2.38,-5.61 2.38,-9.97 v -20.53 l -4.4,-0.7 v -2.68 h 12.21 v 2.68 l -3.83,0.64 V 269 c 0,5.57 -1.29,9.74 -3.88,12.49 -2.59,2.75 -6.03,4.13 -10.32,4.13 -5.13,-0.01 -8.92,-1.41 -11.34,-4.21 z"
   id="path1" />
	<path
   d="m 435.89,259.57 -3.86,-0.96 v -2.89 l 7.66,-0.96 h 0.16 l 1.13,0.96 v 2.25 l -0.05,1.29 c 1.29,-1.14 2.98,-2.18 5.09,-3.11 2.11,-0.93 4.13,-1.39 6.06,-1.39 2.25,0 3.99,0.43 5.23,1.29 1.23,0.86 2.1,2.17 2.6,3.94 0.5,1.77 0.75,4.15 0.75,7.15 v 15.01 l 3.75,0.38 v 2.68 h -12.7 v -2.63 l 3.32,-0.43 v -15.06 c 0,-2.11 -0.14,-3.76 -0.43,-4.96 -0.29,-1.2 -0.82,-2.09 -1.61,-2.68 -0.79,-0.59 -1.93,-0.88 -3.43,-0.88 -1.29,0 -2.66,0.32 -4.13,0.96 -1.47,0.64 -2.77,1.39 -3.91,2.25 v 20.31 l 3.64,0.48 v 2.63 h -12.65 v -2.63 l 3.38,-0.48 z"
   id="path2" />
	<path
   d="m 472,259.57 -4.07,-0.96 v -2.84 l 8.31,-1.02 h 0.11 l 1.23,0.96 v 26.42 l 4.29,0.43 v 2.63 h -14.2 v -2.63 l 4.34,-0.48 v -22.51 z m -0.43,-10.45 c -0.57,-0.64 -0.86,-1.47 -0.86,-2.47 0,-1.14 0.35,-2.09 1.04,-2.84 0.7,-0.75 1.65,-1.12 2.87,-1.12 1.21,0 2.11,0.32 2.68,0.96 0.57,0.64 0.86,1.47 0.86,2.47 0,1.22 -0.35,2.18 -1.04,2.89 -0.69,0.71 -1.67,1.07 -2.92,1.07 h -0.05 c -1.15,0 -2.01,-0.32 -2.58,-0.96 z"
   id="path3" />
	<path
   d="m 481.02,255.44 h 12.43 v 2.52 l -3.8,0.7 5.41,15.43 2.25,6.81 1.93,-6.59 5.41,-15.65 -3.64,-0.7 v -2.52 h 10.88 v 2.52 l -2.79,0.7 -10.34,26.96 h -4.56 l -10.77,-26.96 -2.41,-0.7 z"
   id="path4" />
	<path
   d="m 514.96,281.54 c -2.27,-2.82 -3.4,-6.59 -3.4,-11.31 0,-3.11 0.59,-5.84 1.77,-8.2 1.18,-2.36 2.83,-4.18 4.96,-5.47 2.13,-1.29 4.55,-1.93 7.26,-1.93 3.32,0 5.9,0.92 7.74,2.76 1.84,1.84 2.81,4.47 2.92,7.9 0,2.18 -0.13,3.84 -0.38,4.99 H 517.4 c 0.07,3.54 0.89,6.39 2.46,8.55 1.57,2.16 3.8,3.24 6.7,3.24 1.43,0 2.92,-0.26 4.47,-0.78 1.55,-0.52 2.76,-1.13 3.62,-1.85 l 1.02,2.36 c -1.04,1.07 -2.57,2 -4.61,2.79 -2.04,0.79 -4.11,1.18 -6.22,1.18 -4.31,0.01 -7.61,-1.41 -9.88,-4.23 z m 15.36,-14.09 c 0.11,-0.75 0.16,-1.52 0.16,-2.3 -0.04,-2.32 -0.53,-4.15 -1.47,-5.49 -0.95,-1.34 -2.44,-2.01 -4.47,-2.01 -2.07,0 -3.72,0.75 -4.96,2.25 -1.23,1.5 -1.94,4.02 -2.12,7.56 h 12.86 z"
   id="path5" />
	<path
   d="m 538.83,282.56 4.02,-0.32 v -22.67 l -3.86,-0.96 v -2.89 l 7.4,-0.96 h 0.11 l 1.18,0.96 v 0.96 l -0.16,4.18 h 0.16 c 0.36,-0.61 1,-1.39 1.93,-2.36 0.93,-0.96 2.13,-1.85 3.59,-2.65 1.46,-0.81 3.05,-1.21 4.77,-1.21 0.71,0 1.3,0.09 1.77,0.27 v 6 c -0.25,-0.18 -0.65,-0.35 -1.21,-0.51 -0.55,-0.16 -1.17,-0.24 -1.85,-0.24 -2.97,0 -5.72,0.91 -8.25,2.73 v 19.29 l 6.81,0.43 v 2.57 h -16.4 v -2.62 z"
   id="path6" />
	<path
   d="m 567.47,280.9 c 0.36,0.54 1.12,1.02 2.28,1.45 1.16,0.43 2.38,0.64 3.67,0.64 2.04,0 3.54,-0.39 4.5,-1.18 0.96,-0.78 1.45,-1.88 1.45,-3.27 0,-0.96 -0.3,-1.8 -0.91,-2.52 -0.61,-0.71 -1.46,-1.35 -2.55,-1.9 -1.09,-0.55 -2.65,-1.22 -4.69,-2.01 -2.75,-1.04 -4.76,-2.28 -6.03,-3.72 -1.27,-1.45 -1.9,-3.35 -1.9,-5.71 0,-1.57 0.47,-2.95 1.42,-4.12 0.95,-1.18 2.25,-2.1 3.91,-2.76 1.66,-0.66 3.51,-0.99 5.55,-0.99 1.64,0 3.08,0.13 4.31,0.38 1.23,0.25 2.22,0.5 2.97,0.75 0.75,0.25 1.25,0.41 1.5,0.48 v 6.65 h -3.27 l -1.07,-3.97 c -0.21,-0.43 -0.79,-0.79 -1.71,-1.1 -0.93,-0.3 -1.97,-0.45 -3.11,-0.45 -1.61,0 -2.9,0.36 -3.89,1.07 -0.98,0.71 -1.47,1.68 -1.47,2.89 0,1.07 0.26,1.96 0.78,2.65 0.52,0.7 1.17,1.26 1.96,1.69 0.79,0.43 1.86,0.93 3.22,1.5 l 1.07,0.43 c 2,0.79 3.63,1.54 4.88,2.25 1.25,0.71 2.3,1.65 3.13,2.81 0.84,1.16 1.26,2.58 1.26,4.26 0,2.64 -1.03,4.75 -3.08,6.32 -2.05,1.57 -4.87,2.36 -8.44,2.36 -1.75,0 -3.58,-0.24 -5.49,-0.72 -1.91,-0.48 -3.47,-0.97 -4.69,-1.47 v -6.86 h 3.48 z"
   id="path7" />
	<path
   d="m 592,259.57 -4.07,-0.96 v -2.84 l 8.31,-1.02 h 0.11 l 1.23,0.96 v 26.42 l 4.29,0.43 v 2.63 h -14.2 v -2.63 l 4.34,-0.48 v -22.51 z m -0.42,-10.45 c -0.57,-0.64 -0.86,-1.47 -0.86,-2.47 0,-1.14 0.35,-2.09 1.04,-2.84 0.7,-0.75 1.65,-1.12 2.87,-1.12 1.21,0 2.11,0.32 2.68,0.96 0.57,0.64 0.86,1.47 0.86,2.47 0,1.22 -0.35,2.18 -1.04,2.89 -0.69,0.71 -1.67,1.07 -2.92,1.07 h -0.05 c -1.16,0 -2.01,-0.32 -2.58,-0.96 z"
   id="path8" />
	<path
   d="m 608.09,284.33 c -1,-0.93 -1.5,-2.52 -1.5,-4.77 v -20.58 h -3.86 v -2.41 c 0.18,-0.04 0.68,-0.16 1.5,-0.38 0.82,-0.21 1.37,-0.41 1.66,-0.59 0.57,-0.32 1.02,-0.97 1.34,-1.93 0.29,-0.68 0.62,-1.77 1.02,-3.27 0.39,-1.5 0.62,-2.39 0.7,-2.68 h 3.16 l 0.11,7.71 h 8.95 v 3.54 h -8.95 v 16.45 c 0,2.04 0.06,3.47 0.19,4.29 0.12,0.82 0.39,1.36 0.8,1.61 0.41,0.25 1.12,0.37 2.12,0.37 0.96,0 2.03,-0.12 3.19,-0.37 1.16,-0.25 2.06,-0.52 2.71,-0.8 l 0.8,2.41 c -0.86,0.64 -2.24,1.27 -4.15,1.88 -1.91,0.61 -3.65,0.91 -5.23,0.91 -2.04,0 -3.56,-0.46 -4.56,-1.39 z"
   id="path9" />
	<path
   d="m 626.98,281.54 c -2.27,-2.82 -3.4,-6.59 -3.4,-11.31 0,-3.11 0.59,-5.84 1.77,-8.2 1.18,-2.36 2.83,-4.18 4.96,-5.47 2.13,-1.29 4.55,-1.93 7.26,-1.93 3.32,0 5.9,0.92 7.74,2.76 1.84,1.84 2.81,4.47 2.92,7.9 0,2.18 -0.13,3.84 -0.38,4.99 h -18.43 c 0.07,3.54 0.89,6.39 2.46,8.55 1.57,2.16 3.8,3.24 6.7,3.24 1.43,0 2.92,-0.26 4.47,-0.78 1.55,-0.52 2.76,-1.13 3.62,-1.85 l 1.02,2.36 c -1.04,1.07 -2.57,2 -4.61,2.79 -2.04,0.79 -4.11,1.18 -6.22,1.18 -4.32,0.01 -7.61,-1.41 -9.88,-4.23 z m 15.35,-14.09 c 0.11,-0.75 0.16,-1.52 0.16,-2.3 -0.04,-2.32 -0.53,-4.15 -1.47,-5.49 -0.95,-1.34 -2.44,-2.01 -4.47,-2.01 -2.07,0 -3.72,0.75 -4.96,2.25 -1.23,1.5 -1.94,4.02 -2.12,7.56 h 12.86 z m -7.5,-17.26"
   id="path10" />
	<path
   d="m 668.64,284.17 c -1.72,-1.07 -3.09,-2.71 -4.1,-4.93 -1.01,-2.21 -1.52,-4.95 -1.52,-8.2 0,-3.04 0.6,-5.8 1.8,-8.3 1.2,-2.5 2.93,-4.48 5.18,-5.92 2.25,-1.45 4.91,-2.17 7.97,-2.17 1.75,0 3.35,0.2 4.79,0.59 v -10.02 l -5.26,-0.64 v -2.3 l 9.28,-0.96 h 0.15 l 1.13,0.86 v 40.3 h 2.99 v 2.47 c -1.1,0.25 -2.05,0.45 -2.86,0.59 -0.81,0.14 -1.66,0.21 -2.55,0.21 -0.89,0 -1.53,-0.16 -1.91,-0.48 -0.38,-0.32 -0.57,-1 -0.57,-2.04 v -1.71 c -0.96,1.22 -2.23,2.23 -3.79,3.06 -1.56,0.82 -3.26,1.23 -5.08,1.23 -2.04,-0.03 -3.93,-0.57 -5.65,-1.64 z m 11.5,-3.14 c 1.17,-0.63 2.04,-1.35 2.63,-2.17 v -19.61 c -0.28,-0.43 -0.92,-0.81 -1.93,-1.15 -1.01,-0.34 -2.09,-0.51 -3.22,-0.51 -2.68,0 -4.82,1.06 -6.42,3.19 -1.6,2.13 -2.4,5.41 -2.4,9.84 0,3.86 0.7,6.72 2.11,8.57 1.41,1.86 3.23,2.79 5.47,2.79 1.33,-0.01 2.59,-0.32 3.76,-0.95 z"
   id="path11" />
	<path
   d="m 696.13,281.54 c -2.18,-2.82 -3.27,-6.59 -3.27,-11.31 0,-3.11 0.57,-5.84 1.7,-8.2 1.13,-2.36 2.72,-4.18 4.77,-5.47 2.04,-1.29 4.37,-1.93 6.99,-1.93 3.2,0 5.68,0.92 7.45,2.76 1.77,1.84 2.71,4.47 2.81,7.9 0,2.18 -0.12,3.84 -0.36,4.99 h -17.74 c 0.07,3.54 0.86,6.39 2.37,8.55 1.51,2.16 3.66,3.24 6.44,3.24 1.37,0 2.81,-0.26 4.31,-0.78 1.5,-0.52 2.66,-1.13 3.48,-1.85 l 0.98,2.36 c -1,1.07 -2.47,2 -4.43,2.79 -1.96,0.79 -3.95,1.18 -5.98,1.18 -4.17,0.01 -7.34,-1.41 -9.52,-4.23 z m 14.77,-14.09 c 0.1,-0.75 0.15,-1.52 0.15,-2.3 -0.03,-2.32 -0.51,-4.15 -1.42,-5.49 -0.91,-1.34 -2.35,-2.01 -4.31,-2.01 -1.99,0 -3.58,0.75 -4.77,2.25 -1.19,1.5 -1.87,4.02 -2.04,7.56 h 12.39 z"
   id="path12" />
	<g
   id="g13">
		<path
   d="m 396.97,337.36 c 0.61,0.06 1.47,0.29 2.64,0.7 1.95,0.58 3.76,1.06 5.4,1.41 v 0 c 1.63,0.35 3.5,0.53 5.57,0.53 3.42,0 6.36,-0.62 8.76,-1.84 2.4,-1.22 4.2,-2.8 5.37,-4.69 1.17,-1.9 1.76,-3.9 1.76,-5.94 0,-2.16 -0.59,-4.05 -1.75,-5.61 -1.17,-1.57 -2.58,-2.86 -4.21,-3.83 -1.63,-0.97 -3.77,-2.08 -6.36,-3.29 -2.8,-1.29 -4.87,-2.32 -6.14,-3.06 -1.29,-0.75 -2.38,-1.66 -3.24,-2.73 -0.87,-1.07 -1.31,-2.42 -1.31,-4 0,-2.18 0.73,-3.86 2.17,-5.01 1.43,-1.15 3.57,-1.73 6.34,-1.73 1.49,0 2.88,0.18 4.15,0.53 1.27,0.35 2.12,0.74 2.54,1.14 l 0.02,0.02 0.01,0.03 1.19,7.15 h 3.49 l 0.35,-9.69 c -0.55,-0.09 -1.21,-0.26 -1.97,-0.52 -1.79,-0.47 -3.42,-0.84 -4.83,-1.11 -1.42,-0.27 -3.06,-0.41 -4.88,-0.41 -2.93,0 -5.54,0.49 -7.74,1.46 -2.2,0.97 -3.91,2.31 -5.07,3.99 -1.16,1.68 -1.76,3.61 -1.76,5.73 0,2.36 0.61,4.41 1.82,6.08 1.21,1.69 2.66,3.05 4.3,4.06 1.65,1.01 3.62,2.02 5.85,2.99 2.46,1.05 4.43,1.98 5.87,2.77 1.43,0.79 2.59,1.75 3.46,2.85 0.87,1.11 1.31,2.46 1.31,4 0,2.37 -0.81,4.26 -2.41,5.6 -1.59,1.34 -3.95,2.02 -7.01,2.02 -1.84,0 -3.56,-0.25 -5.11,-0.74 -1.55,-0.49 -2.68,-1.06 -3.37,-1.7 l -0.03,-0.02 -0.01,-0.04 -1.01,-7.56 h -3.67 z"
   id="path13" />
	</g>
	<path
   d="m 432.37,299.52 -4.6,-0.59 v -2.3 l 8.93,-1.02 h 0.11 l 1.21,0.8 v 12.43 l -0.22,4.55 c 1.17,-1.04 2.78,-2.02 4.82,-2.95 2.05,-0.93 4.11,-1.39 6.19,-1.39 2.3,0 4.09,0.43 5.37,1.29 1.28,0.86 2.17,2.17 2.69,3.94 0.51,1.77 0.77,4.15 0.77,7.15 v 14.95 l 3.84,0.48 v 2.63 h -13.1 v -2.63 l 3.56,-0.48 v -15.01 c 0,-2.11 -0.15,-3.76 -0.44,-4.96 -0.29,-1.2 -0.84,-2.09 -1.64,-2.68 -0.8,-0.59 -2.01,-0.88 -3.62,-0.88 -1.32,0 -2.72,0.32 -4.22,0.96 -1.5,0.64 -2.81,1.39 -3.95,2.25 v 20.31 l 3.78,0.48 v 2.63 h -12.77 v -2.63 l 3.29,-0.43 z"
   id="path14" />
	<path
   d="m 467.99,335.86 c -2.32,-2.82 -3.48,-6.59 -3.48,-11.31 0,-3.11 0.6,-5.84 1.81,-8.2 1.21,-2.36 2.9,-4.18 5.07,-5.47 2.17,-1.29 4.65,-1.93 7.43,-1.93 3.4,0 6.04,0.92 7.92,2.76 1.88,1.84 2.88,4.47 2.99,7.9 0,2.18 -0.13,3.84 -0.38,4.99 h -18.86 c 0.07,3.54 0.91,6.39 2.52,8.55 1.61,2.16 3.89,3.24 6.85,3.24 1.46,0 2.99,-0.26 4.58,-0.78 1.59,-0.52 2.82,-1.13 3.7,-1.85 l 1.04,2.36 c -1.06,1.07 -2.63,2 -4.71,2.79 -2.08,0.79 -4.2,1.18 -6.36,1.18 -4.43,0 -7.8,-1.41 -10.12,-4.23 z m 15.7,-14.1 c 0.11,-0.75 0.16,-1.52 0.16,-2.3 -0.04,-2.32 -0.54,-4.15 -1.51,-5.49 -0.97,-1.34 -2.49,-2.01 -4.58,-2.01 -2.12,0 -3.81,0.75 -5.07,2.25 -1.26,1.5 -1.98,4.02 -2.16,7.56 h 13.16 z"
   id="path15" />
	<path
   d="m 494.01,336.88 4.11,-0.32 v -22.67 l -3.95,-0.96 v -2.89 l 7.56,-0.96 h 0.11 l 1.21,0.96 V 311 l -0.16,4.18 h 0.16 c 0.36,-0.61 1.02,-1.39 1.97,-2.36 0.95,-0.96 2.17,-1.85 3.67,-2.65 1.5,-0.81 3.12,-1.21 4.88,-1.21 0.73,0 1.33,0.09 1.81,0.27 v 6 c -0.26,-0.18 -0.67,-0.35 -1.23,-0.51 -0.57,-0.16 -1.2,-0.24 -1.89,-0.24 -3.03,0 -5.85,0.91 -8.44,2.73 v 19.29 l 6.96,0.43 v 2.57 h -16.77 z"
   id="path16" />
	<path
   d="m 515.89,296.63 8.77,-1.02 h 0.11 l 1.26,0.8 v 16.13 c 1.1,-1.04 2.4,-1.89 3.92,-2.57 1.52,-0.68 3.21,-1.02 5.07,-1.02 2.19,0 4.19,0.52 6,1.55 1.81,1.04 3.25,2.64 4.33,4.82 1.08,2.18 1.62,4.93 1.62,8.25 0,3.07 -0.65,5.86 -1.95,8.36 -1.3,2.5 -3.15,4.48 -5.56,5.95 -2.41,1.47 -5.21,2.2 -8.39,2.2 -2.52,0 -4.82,-0.24 -6.91,-0.72 -2.08,-0.48 -3.34,-0.92 -3.78,-1.31 v -38.59 l -4.49,-0.59 z m 13.02,17.07 c -1.19,0.63 -2.15,1.33 -2.88,2.12 v 19.72 c 0.22,0.5 0.85,0.9 1.89,1.21 1.04,0.3 2.22,0.45 3.54,0.45 2.81,0 5.08,-1.11 6.8,-3.32 1.72,-2.22 2.58,-5.45 2.58,-9.7 0,-3.82 -0.75,-6.68 -2.25,-8.58 -1.5,-1.89 -3.44,-2.84 -5.81,-2.84 -1.4,0 -2.69,0.31 -3.87,0.94 z"
   id="path17" />
	<path
   d="m 550.6,336.88 4.11,-0.32 v -22.67 l -3.95,-0.96 v -2.89 l 7.56,-0.96 h 0.11 l 1.21,0.96 V 311 l -0.16,4.18 h 0.16 c 0.36,-0.61 1.02,-1.39 1.97,-2.36 0.95,-0.96 2.17,-1.85 3.67,-2.65 1.5,-0.81 3.12,-1.21 4.88,-1.21 0.73,0 1.33,0.09 1.81,0.27 v 6 c -0.26,-0.18 -0.67,-0.35 -1.23,-0.51 -0.57,-0.16 -1.2,-0.24 -1.89,-0.24 -3.03,0 -5.85,0.91 -8.44,2.73 v 19.29 l 6.96,0.43 v 2.57 H 550.6 Z"
   id="path18" />
	<path
   d="m 576.98,316.19 c 1.35,-2.36 3.13,-4.15 5.34,-5.39 2.21,-1.23 4.58,-1.85 7.1,-1.85 4.6,0 8.07,1.43 10.39,4.29 2.32,2.86 3.48,6.61 3.48,11.25 0,3.25 -0.68,6.06 -2.03,8.41 -1.35,2.36 -3.13,4.15 -5.34,5.36 -2.21,1.22 -4.58,1.82 -7.1,1.82 -4.6,0 -8.07,-1.43 -10.39,-4.29 -2.32,-2.86 -3.48,-6.61 -3.48,-11.25 0,-3.21 0.68,-5.99 2.03,-8.35 z m 17.98,17.79 c 1.35,-2.04 2.03,-5.06 2.03,-9.06 0,-3.97 -0.62,-7.11 -1.86,-9.43 -1.24,-2.32 -3.23,-3.48 -5.97,-3.48 -2.52,0 -4.47,1.02 -5.84,3.06 -1.37,2.04 -2.06,5.06 -2.06,9.06 0,3.97 0.64,7.11 1.92,9.43 1.28,2.32 3.27,3.48 5.97,3.48 2.52,0 4.45,-1.02 5.81,-3.06 z"
   id="path19" />
	<path
   d="m 610.07,316.19 c 1.35,-2.36 3.13,-4.15 5.34,-5.39 2.21,-1.23 4.58,-1.85 7.1,-1.85 4.6,0 8.07,1.43 10.39,4.29 2.32,2.86 3.48,6.61 3.48,11.25 0,3.25 -0.68,6.06 -2.03,8.41 -1.35,2.36 -3.13,4.15 -5.34,5.36 -2.21,1.22 -4.58,1.82 -7.1,1.82 -4.6,0 -8.07,-1.43 -10.39,-4.29 -2.32,-2.86 -3.48,-6.61 -3.48,-11.25 0,-3.21 0.68,-5.99 2.03,-8.35 z m 17.98,17.79 c 1.35,-2.04 2.03,-5.06 2.03,-9.06 0,-3.97 -0.62,-7.11 -1.86,-9.43 -1.24,-2.32 -3.23,-3.48 -5.97,-3.48 -2.52,0 -4.47,1.02 -5.84,3.06 -1.37,2.04 -2.06,5.06 -2.06,9.06 0,3.97 0.64,7.11 1.92,9.43 1.28,2.32 3.27,3.48 5.97,3.48 2.52,0 4.46,-1.02 5.81,-3.06 z"
   id="path20" />
	<path
   d="m 643.36,299.52 -4.28,-0.59 v -2.3 l 8.72,-1.02 h 0.05 l 1.21,0.8 v 26.21 l -0.11,3.16 12.66,-12.81 -4.11,-0.75 v -2.47 h 13.26 v 2.47 l -4.33,0.75 -8.06,7.66 10.41,15.81 3.4,0.43 v 2.63 h -13.32 v -2.63 l 3.45,-0.48 -7.73,-12.43 -5.65,5.47 0.11,2.73 v 4.23 l 3.89,0.48 v 2.63 h -13.05 v -2.63 l 3.45,-0.48 v -36.87 z"
   id="path21" />
	<path
   d="m 676.57,335.86 c -2.32,-2.82 -3.48,-6.59 -3.48,-11.31 0,-3.11 0.6,-5.84 1.81,-8.2 1.21,-2.36 2.9,-4.18 5.07,-5.47 2.17,-1.29 4.65,-1.93 7.43,-1.93 3.4,0 6.04,0.92 7.92,2.76 1.88,1.84 2.88,4.47 2.99,7.9 0,2.18 -0.13,3.84 -0.38,4.99 h -18.86 c 0.07,3.54 0.91,6.39 2.52,8.55 1.61,2.16 3.89,3.24 6.85,3.24 1.46,0 2.99,-0.26 4.58,-0.78 1.59,-0.52 2.82,-1.13 3.7,-1.85 l 1.04,2.36 c -1.06,1.07 -2.63,2 -4.71,2.79 -2.08,0.79 -4.2,1.18 -6.36,1.18 -4.43,0 -7.8,-1.41 -10.12,-4.23 z m 15.7,-14.1 c 0.11,-0.75 0.16,-1.52 0.16,-2.3 -0.04,-2.32 -0.54,-4.15 -1.51,-5.49 -0.97,-1.34 -2.49,-2.01 -4.58,-2.01 -2.12,0 -3.81,0.75 -5.07,2.25 -1.26,1.5 -1.98,4.02 -2.16,7.56 h 13.16 z"
   id="path22" />
	<polygon
   points="634.64,249.22 639.31,242.32 645.14,242.32 645.19,242.47 638.37,249.22 634.87,249.22 "
   id="polygon22" />
</g>
<g
   id="g25"
   transform="translate(-78.389999,-219.21001)"
   style="display:inline">
	<g
   id="g24">
		<g
   id="g23">
			<rect
   x="78.389999"
   y="219.21001"
   class="st0"
   width="286.07999"
   height="146.50999"
   id="rect22" />
		</g>
	</g>
	<path
   class="st1"
   d="m 126.59,329.63 c -5.8,-6.55 -8.7,-16.71 -8.7,-30.47 v -40.75 c 0,-2.99 -2.16,-5.55 -5.11,-6.04 L 109,251.73 v -6.26 h 30.73 v 6.26 l -3.34,0.68 c -2.68,0.55 -4.61,2.91 -4.61,5.65 v 42.48 c 0,11.35 2.02,19.52 6.07,24.53 4.05,5.01 9.87,7.51 17.46,7.51 7.59,0 13.29,-2.67 17.08,-8.01 3.8,-5.34 5.69,-13.1 5.69,-23.28 v -42.96 c 0,-2.89 -2.03,-5.39 -4.87,-5.98 l -2.96,-0.62 v -6.26 h 26.47 v 6.26 l -3.85,0.63 c -3.05,0.5 -5.29,3.14 -5.29,6.23 v 42.07 c 0,13.02 -3.09,22.74 -9.26,29.16 -6.18,6.43 -14.39,9.64 -24.65,9.64 -12.25,-0.01 -21.29,-3.28 -27.08,-9.83 z"
   id="path24" />
	<path
   class="st1"
   d="m 288.75,339.02 c -3.42,-0.75 -7.14,-1.87 -11.26,-3 -2.63,-0.72 -5.63,-1.5 -5.63,-1.5 l 1,-22.65 h 8.01 c 0,0 0.18,13.77 2.13,16.27 1.01,1.3 3.73,2.52 6.95,3.57 3.21,1.04 6.74,1.56 10.57,1.56 6.34,0 11.16,-1.42 14.45,-4.25 3.29,-2.84 4.94,-6.76 4.94,-11.76 0,-3.25 -0.9,-6.05 -2.69,-8.39 -1.8,-2.33 -4.17,-4.34 -7.13,-6.01 -2.96,-1.67 -7.03,-3.63 -12.2,-5.88 -4.67,-2.08 -8.74,-4.21 -12.2,-6.38 -3.46,-2.17 -6.47,-5.07 -9.01,-8.7 -2.55,-3.63 -3.82,-7.99 -3.82,-13.08 0,-4.59 1.23,-8.7 3.69,-12.33 2.46,-3.63 6.01,-6.49 10.64,-8.57 4.63,-2.08 10.03,-3.13 16.21,-3.13 3.84,0 7.24,0.29 10.2,0.88 2.96,0.58 6.32,1.38 10.07,2.38 1.73,0.54 4.25,1.13 4.25,1.13 l -0.75,21.02 h -7.63 c 0,0 0.1,-12.84 -2.5,-15.39 -0.89,-0.88 -2.57,-1.63 -5.19,-2.38 -2.63,-0.75 -5.49,-1.13 -8.57,-1.13 -5.76,0 -10.12,1.21 -13.08,3.63 -2.96,2.42 -4.44,5.92 -4.44,10.51 0,3.34 0.9,6.13 2.69,8.39 1.79,2.25 4.02,4.17 6.7,5.76 2.67,1.59 6.92,3.75 12.76,6.51 5.42,2.59 9.84,4.92 13.27,7.01 3.42,2.09 6.36,4.82 8.82,8.2 2.46,3.38 3.69,7.4 3.69,12.08 0,4.42 -1.23,8.68 -3.69,12.76 -2.46,4.09 -6.22,7.45 -11.26,10.07 -5.05,2.63 -11.16,3.94 -18.33,3.94 -4.36,-0.02 -8.24,-0.39 -11.66,-1.14 z"
   id="path25" />
</g>
<g
   id="g26"
   transform="translate(-78.389999,-219.21001)"
   style="display:inline">
	<path
   class="st1"
   d="m 258.6,276.93 c -2.61,-4.34 -6.26,-7.75 -10.93,-10.23 -4.67,-2.48 -12.28,-3.72 -18.5,-3.72 h -18.9 -5.53 v 4.47 c 0,0 5.53,-0.01 5.53,3.09 0,0 -0.12,13.79 -0.12,21.87 0,8.09 0.12,21.95 0.12,21.95 0,2.57 -5.53,3.05 -5.53,3.05 v 4.43 h 24.77 c 6.19,0 13.76,-1.25 18.4,-3.74 4.64,-2.49 8.23,-5.92 10.79,-10.27 2.55,-4.35 3.83,-9.29 3.83,-14.82 v -1.17 c -0.01,-5.6 -1.32,-10.57 -3.93,-14.91 z m -6.36,16 c 0,4.67 -0.97,8.85 -2.91,12.52 -1.94,3.68 -4.67,6.57 -8.2,8.68 -3.53,2.11 -9.28,3.16 -13.98,3.16 h -7.83 v -49.76 h 7.57 c 4.73,0 10.51,1.05 14.06,3.14 3.55,2.1 6.32,4.98 8.31,8.65 1.99,3.67 2.98,7.87 2.98,12.61 z"
   id="path26" />
</g>

</svg>
